<svg width="20" height="24" viewBox="0 0 20 24" fill="none" xmlns="http://www.w3.org/2000/svg">
<path d="M19.9949 20.746L18.5641 5.27117C18.5335 4.92761 18.232 4.66748 17.8794 4.66748H14.9361C14.8952 2.08589 12.698 0 10 0C7.30199 0 5.10475 2.08589 5.06387 4.66748H2.12059C1.7629 4.66748 1.46653 4.92761 1.43587 5.27117L0.00510998 20.746C0.00510998 20.7656 0 20.7853 0 20.8049C0 22.5669 1.68114 24 3.75064 24H16.2494C18.3189 24 20 22.5669 20 20.8049C20 20.7853 20 20.7656 19.9949 20.746ZM10 1.32515C11.9366 1.32515 13.5156 2.81718 13.5565 4.66748H6.44354C6.48441 2.81718 8.06336 1.32515 10 1.32515ZM16.2494 22.6748H3.75064C2.45273 22.6748 1.4001 21.8503 1.37966 20.8344L2.74911 5.99755H5.05876V8.00982C5.05876 8.37791 5.36536 8.67239 5.74859 8.67239C6.13183 8.67239 6.43843 8.37791 6.43843 8.00982V5.99755H13.5565V8.00982C13.5565 8.37791 13.8631 8.67239 14.2463 8.67239C14.6295 8.67239 14.9361 8.37791 14.9361 8.00982V5.99755H17.2458L18.6203 20.8344C18.5999 21.8503 17.5422 22.6748 16.2494 22.6748Z" fill="black"/>
</svg>
