<svg width="18" height="18" viewBox="0 0 18 18" fill="none" xmlns="http://www.w3.org/2000/svg">
<g opacity="0.65">
<path d="M10.0402 8.57125L16.7499 1.83003C17.1667 1.41157 17.1667 0.732585 16.7499 0.314118C16.333 -0.104706 15.6579 -0.104706 15.241 0.314118L8.53143 7.05533L1.82146 0.314118C1.40459 -0.104706 0.729507 -0.104706 0.312646 0.314118C-0.104215 0.732585 -0.104215 1.41157 0.312646 1.83003L7.02262 8.57125L0.312646 15.3125C-0.104215 15.7309 -0.104215 16.4099 0.312646 16.8284C0.521077 17.0374 0.794242 17.1421 1.06705 17.1421C1.33986 17.1421 1.61303 17.0374 1.82146 16.828L8.53143 10.0868L15.241 16.828C15.4495 17.0374 15.7226 17.1421 15.9954 17.1421C16.2683 17.1421 16.5414 17.0374 16.7499 16.828C17.1667 16.4096 17.1667 15.7306 16.7499 15.3121L10.0402 8.57125Z" fill="white"/>
</g>
</svg>
