<svg width="18" height="13" viewBox="0 0 18 13" fill="none" xmlns="http://www.w3.org/2000/svg">
<path d="M14.4632 1.66677C11.1521 -0.529385 6.8478 -0.529385 3.53663 1.66677C1.9754 2.70205 0.756601 4.17736 0.0344884 5.90593C-0.0114961 6.0166 -0.0114961 6.14106 0.0344884 6.25159C0.756741 7.98016 1.97554 9.45546 3.53705 10.4909C6.84808 12.6869 11.1522 12.6869 14.4634 10.4909C16.0246 9.45546 17.2435 7.98016 17.9655 6.25159C18.0115 6.14106 18.0115 6.0166 17.9655 5.90593C17.2435 4.17736 16.0245 2.70205 14.4632 1.66677ZM13.963 9.74262C10.9546 11.7363 7.04523 11.7363 4.03683 9.74262C2.6767 8.84079 1.60246 7.56995 0.939554 6.07876C1.60246 4.5877 2.6767 3.31673 4.03683 2.41504C7.04523 0.421245 10.9546 0.421245 13.963 2.41504C15.3229 3.31673 16.3974 4.5877 17.0603 6.07876C16.3974 7.56995 15.3229 8.84079 13.963 9.74262Z" fill="#202020"/>
<path d="M5.76349 2.84224C3.97614 4.62987 3.97614 7.52775 5.76349 9.3151C7.55098 11.1026 10.449 11.1026 12.2362 9.3151C14.0238 7.52775 14.0238 4.62987 12.2362 2.84224C10.449 1.05503 7.55098 1.05503 5.76349 2.84224ZM11.6002 8.67891C10.1645 10.1132 7.83814 10.1124 6.40334 8.67736C4.96867 7.24214 4.96867 4.91563 6.40334 3.48054C7.83814 2.04531 10.1645 2.04461 11.6002 3.47899C13.0369 4.91436 13.0369 7.24326 11.6002 8.67891Z" fill="#202020"/>
<path d="M7.60817 4.68694C6.84049 5.45616 6.84049 6.70141 7.60817 7.47063C8.37683 8.23929 9.62305 8.23929 10.3917 7.47063C11.1605 6.70183 11.1605 5.4556 10.3917 4.68694C9.62305 3.91799 8.37683 3.91799 7.60817 4.68694ZM9.75538 6.8343C9.33814 7.25153 8.66173 7.25153 8.2445 6.8343C7.82712 6.41692 7.82712 5.74051 8.2445 5.32327C8.66173 4.90589 9.33814 4.90589 9.75538 5.32327C10.1728 5.74051 10.1728 6.41692 9.75538 6.8343Z" fill="#202020"/>
</svg>
