<svg width="23" height="20" viewBox="0 0 23 20" fill="none" xmlns="http://www.w3.org/2000/svg">
<path d="M10.8773 18.8692L10.8776 18.8695C11.0302 18.9915 11.2333 19.0637 11.4506 19.0637C11.6679 19.0637 11.8713 18.9914 12.0237 18.8697L12.0238 18.8696C12.9539 18.127 13.8496 17.4301 14.6377 16.8171C16.9566 15.0129 18.9091 13.4918 20.2598 12.0037L20.2599 12.0037C21.752 10.3601 22.4013 8.85612 22.4013 7.24615C22.4013 5.65542 21.8052 4.20039 20.7329 3.1385C19.6471 2.06337 18.1494 1.46289 16.5038 1.46289C15.2837 1.46289 14.174 1.8133 13.194 2.5053L13.1939 2.50531C12.697 2.85611 12.2441 3.28737 11.8425 3.79417L11.4506 4.28878L11.0587 3.79409C10.6574 3.28741 10.2043 2.85615 9.70751 2.5053L10.8773 18.8692ZM10.8773 18.8692C9.95008 18.1291 9.05648 17.4338 8.27022 16.8221M10.8773 18.8692L8.27022 16.8221M8.27022 16.8221L8.26817 16.8205L8.26819 16.8205L8.26425 16.8174C5.94499 15.0131 3.99238 13.4918 2.64161 12.0039C1.14946 10.3601 0.5 8.85609 0.5 7.24615C0.5 5.65546 1.09623 4.20043 2.16857 3.13852C3.2544 2.06337 4.75193 1.46289 6.39766 1.46289C7.61779 1.46289 8.72741 1.81329 9.70747 2.50527L8.27022 16.8221Z" stroke="#353535"/>
</svg>
