<svg width="120" height="121" viewBox="0 0 120 121" fill="none" xmlns="http://www.w3.org/2000/svg">
<path fill-rule="evenodd" clip-rule="evenodd" d="M86.7435 26.272H100.911C111.437 26.272 120 34.835 120 45.3608V95.8283C120 97.1219 118.951 98.1721 117.656 98.1721H80.8228V117.906C80.8228 119.201 79.7736 120.25 78.479 120.25H61.734C60.4404 120.25 59.3903 119.201 59.3903 117.906V98.1721H18.7994C17.5049 98.1721 16.4557 97.1219 16.4557 95.8283V85.8646H4.62524C2.0755 85.8646 0 83.79 0 81.2403V44.1962C0 41.6456 2.0755 39.571 4.62524 39.571H17.3492C19.8468 31.681 27.1609 26.272 35.5444 26.272H82.056V2.59375C82.056 1.29919 83.1052 0.25 84.3997 0.25H107.837C108.681 0.25 109.46 0.704102 109.876 1.43835C110.293 2.17261 110.282 3.0744 109.848 3.79858L105.881 10.4206L109.848 17.0435C110.282 17.7668 110.292 18.6686 109.876 19.4028C109.46 20.1371 108.681 20.5912 107.837 20.5912H86.7435V26.272ZM103.701 4.9375H86.7435V15.9037H103.701L101.138 11.6245C100.694 10.8829 100.694 9.95825 101.138 9.21667L103.701 4.9375ZM48.7299 39.571C46.4969 34.5045 41.4267 30.9595 35.5444 30.9595C29.7354 30.9595 24.6075 34.4001 22.3499 39.571H48.7299ZM40.1697 62.721L49.9457 72.2755V53.1656L40.1697 62.721ZM49.9448 45.3608C49.9448 44.99 49.931 44.6219 49.9036 44.2585H10.5396L31.4429 64.6958L49.9448 46.6114V45.3608ZM22.7179 62.7201L4.6875 45.0925V80.3431L22.7179 62.7201ZM29.8041 69.6488L26.0706 65.9986L10.5405 81.178H49.9448V78.8297L36.8161 65.9986L33.0807 69.6488C32.6257 70.0947 32.0343 70.3171 31.4429 70.3171C30.8514 70.3171 30.26 70.0938 29.8041 69.6488ZM49.9457 93.4846V85.8646H21.1432V93.4846H49.9457ZM64.0778 115.562H76.1353V98.1721H64.0778V115.562ZM54.6332 93.4846H115.312V45.3608C115.312 37.4195 108.853 30.9595 100.911 30.9595H86.7435V33.9277C91.2103 34.9879 94.5428 39.0107 94.5428 43.7971C94.5428 49.39 89.9927 53.9402 84.3997 53.9402C78.8068 53.9402 74.2566 49.39 74.2566 43.7971C74.2566 39.0107 77.5891 34.9879 82.056 33.9277V30.9595H48.0606C52.0853 34.4614 54.6332 39.6195 54.6332 45.3608V81.1771H97.3984C98.6929 81.1771 99.7421 82.2272 99.7421 83.5209C99.7421 84.8154 98.6929 85.8646 97.3984 85.8646H54.6332V93.4846ZM86.7435 42.1592C86.7435 43.4537 85.6943 44.5029 84.3997 44.5029C83.1052 44.5029 82.056 43.4537 82.056 42.1592V38.8706C80.2176 39.7495 78.9441 41.6273 78.9441 43.7971C78.9441 46.8055 81.3913 49.2527 84.3997 49.2527C87.4072 49.2527 89.8553 46.8055 89.8553 43.7971C89.8553 41.6273 88.5818 39.7495 86.7435 38.8706V42.1592ZM107.018 85.8206C107.171 85.8508 107.323 85.8645 107.475 85.8645C107.629 85.8645 107.784 85.8508 107.934 85.8206C108.084 85.7894 108.232 85.7428 108.373 85.6842C108.513 85.6256 108.649 85.5551 108.778 85.4708C108.905 85.3848 109.026 85.2859 109.134 85.1779C109.242 85.0698 109.34 84.9508 109.425 84.8217C109.509 84.6954 109.582 84.559 109.641 84.4189C109.699 84.2761 109.743 84.1278 109.774 83.9804C109.805 83.8284 109.821 83.6737 109.821 83.5208C109.821 83.3688 109.805 83.2141 109.774 83.0639C109.743 82.9138 109.699 82.7664 109.641 82.6254C109.582 82.4826 109.509 82.3471 109.425 82.2207C109.34 82.0916 109.242 81.9717 109.134 81.8637C109.026 81.7565 108.905 81.6577 108.778 81.5734C108.649 81.4892 108.514 81.416 108.373 81.3574C108.232 81.2988 108.084 81.2521 107.934 81.2246C107.632 81.1633 107.32 81.1633 107.018 81.2246C106.868 81.2521 106.72 81.2988 106.58 81.3574C106.439 81.416 106.303 81.4892 106.176 81.5734C106.047 81.6577 105.928 81.7565 105.82 81.8637C105.71 81.9717 105.614 82.0916 105.527 82.2207C105.443 82.3471 105.37 82.4826 105.311 82.6254C105.253 82.7664 105.209 82.9138 105.178 83.0639C105.148 83.2141 105.134 83.3688 105.134 83.5208C105.134 83.6737 105.147 83.8284 105.178 83.9804C105.209 84.1278 105.253 84.2761 105.311 84.4189C105.37 84.559 105.443 84.6954 105.527 84.8217C105.614 84.9508 105.71 85.0698 105.82 85.1779C105.928 85.2859 106.047 85.3848 106.176 85.4708C106.303 85.5551 106.439 85.6256 106.58 85.6842C106.72 85.7428 106.868 85.7894 107.018 85.8206Z" fill="#D21B4F"/>
</svg>
