<svg width="17" height="21" viewBox="0 0 17 21" fill="none" xmlns="http://www.w3.org/2000/svg">
<path d="M16.9188 17.5543L15.7081 4.46022C15.6822 4.16951 15.4271 3.94941 15.1287 3.94941H12.6383C12.6037 1.76498 10.7445 0 8.46154 0C6.17861 0 4.31941 1.76498 4.28482 3.94941H1.79435C1.49169 3.94941 1.24091 4.16951 1.21497 4.46022L0.00432383 17.5543C0.00432383 17.5709 0 17.5875 0 17.6042C0 19.095 1.42251 20.3077 3.17362 20.3077H13.7495C15.5006 20.3077 16.9231 19.095 16.9231 17.6042C16.9231 17.5875 16.9231 17.5709 16.9188 17.5543ZM8.46154 1.12128C10.1002 1.12128 11.4363 2.38377 11.4709 3.94941H5.45222C5.48681 2.38377 6.82284 1.12128 8.46154 1.12128Z" fill="#DB2E5F"/>
</svg>
